<svg id="圖層_1" data-name="圖層 1" xmlns="http://www.w3.org/2000/svg" viewBox="0 0 364 220"><defs><style>.cls-1{fill:#ffecda;}.cls-2{fill:#d4a5a5;}</style></defs><g id="C"><path class="cls-1" d="M142,149.78a20.21,20.21,0,0,1-4.86,4.88,7.06,7.06,0,0,1-1.45-2.31,12.14,12.14,0,0,1-3.16.51h-77c-5.95,0-10.77-4.22-10.77-9.31L53,84.83c0-4.24,4-25.43,9-25.43,2.21-.52,8.47,5.47,12.28,10.91A16.66,16.66,0,0,0,87.9,77H100a16.71,16.71,0,0,0,13.72-6.77c3.77-5.4,9.91-11.38,12.27-10.89,5,0,8.93,21.2,8.93,25.44l8,57.5C143.19,144.08,143.65,147.29,142,149.78ZM119.45,97.29a4,4,0,0,0-4,4,8.78,8.78,0,0,1-17.55,0,4,4,0,1,0-8,0,8.78,8.78,0,0,1-17.55,0,4,4,0,1,0-8,0A17,17,0,0,0,81.17,118a16.79,16.79,0,0,0,12.76-6,16.79,16.79,0,0,0,12.76,6,17,17,0,0,0,16.75-16.75A4,4,0,0,0,119.45,97.29Z"/><path class="cls-1" d="M86.73,171.54A83.88,83.88,0,1,1,161.1,48.79a9.72,9.72,0,1,1-17.24,9A64.41,64.41,0,0,0,26,108.91a64.45,64.45,0,0,0,100,29.87,9.73,9.73,0,0,1,11.83,15.44,84.37,84.37,0,0,1-51.08,17.32Z"/><path class="cls-1" d="M47.75,122.21a7.41,7.41,0,0,1-14.18,1.72l-6.32.77L32.12,138s1,2.38,5.38,6,14.62,5.38,14.62,5.38L57,121.09Z"/></g><g id="ater"><path class="cls-1" d="M177.28,145.29a16,16,0,0,1-12.39-5.1,17.09,17.09,0,0,1-4.5-12.19,16,16,0,0,1,7.49-14.09q7.5-5,24.09-6.8-.6-7.29-8.59-7.29a23.07,23.07,0,0,0-8.1,1.7,8.12,8.12,0,0,1-5.7.8,6.22,6.22,0,0,1-4.29-3.5q-3-5.7,2.69-8.8a44.94,44.94,0,0,1,18.79-4.4q23,0,23,26V136.7a6.59,6.59,0,0,1-2.3,5.39,9,9,0,0,1-5.89,1.8,8.14,8.14,0,0,1-4.85-1.45,6.93,6.93,0,0,1-2.75-4.05v-.2h-.4q-7.89,7.11-16.29,7.1m6.1-13.79q4.4,0,8.59-4.5v-9.09c-5.2.66-9,1.8-11.49,3.39a6.18,6.18,0,0,0-3.2,5.3q0,4.91,6.1,4.9"/><path class="cls-1" d="M243.64,145.29q-10.29,0-15.39-6.2-4.69-5.68-4.7-16.29V100.92h-1.1q-6.58,0-6.59-6.8,0-6.39,6.19-6.89l2.5-.21,1.1-8.29q.9-6.69,8-6.7,7.69,0,7.69,7.4V87h6.5q6.89,0,6.89,6.9t-6.89,7h-6.5V122.6q0,8.81,7.2,8.8h.2a4.64,4.64,0,0,1,4.09.9,6.07,6.07,0,0,1,2.2,3.9q1.61,7-3.59,8.29a35.36,35.36,0,0,1-7.8.8"/><path class="cls-1" d="M289.21,145.29q-12.58,0-20.58-7.9-8.31-8.08-8.3-21.88,0-13.29,8.3-21.89a25.15,25.15,0,0,1,18.68-8q11.9,0,18.39,7.89,6,7.4,6,19.59a34.25,34.25,0,0,1-.3,4.8,3.09,3.09,0,0,1-1.35,1.94,4.33,4.33,0,0,1-2.65.85H277.52q2.3,11,14.19,11a21.1,21.1,0,0,0,6.1-.9,6.92,6.92,0,0,1,5.14-.55,6.83,6.83,0,0,1,3.85,3.45q2.81,5.09-2.2,8a34.31,34.31,0,0,1-15.39,3.6m-12-36.18h19.39q0-9.89-9-9.89a9.57,9.57,0,0,0-6.59,2.4,12.76,12.76,0,0,0-3.8,7.49"/><path class="cls-1" d="M332,143.89q-8.89,0-8.9-8.79V94.22q0-7.2,7.5-7.2,7.1,0,7.79,6.6l.4,3.3h.4a23.41,23.41,0,0,1,7.5-8.5,15.52,15.52,0,0,1,8.69-2.8h.5a5.67,5.67,0,0,1,4.4,3.2,10,10,0,0,1,.4,6,8.82,8.82,0,0,1-2.5,4.9,5.67,5.67,0,0,1-4.9,1.5h-.2a10.86,10.86,0,0,0-6.59,2.29,18,18,0,0,0-5.7,7.9V135.1q0,8.79-8.79,8.79"/></g><g id="Cat_First" data-name="Cat First"><path class="cls-2" d="M110.37,205a9.58,9.58,0,0,1-.84,3.7,13.43,13.43,0,0,1-2.65,3.9,13.63,13.63,0,0,1-4.62,3.12,16.52,16.52,0,0,1-6.54,1.19,23.29,23.29,0,0,1-5.15-.53,14.38,14.38,0,0,1-4.21-1.68,13.71,13.71,0,0,1-3.48-3,17.6,17.6,0,0,1-2.42-3.77,19.27,19.27,0,0,1-1.5-4.45,23.9,23.9,0,0,1-.5-5,22.28,22.28,0,0,1,1.26-7.74,16.29,16.29,0,0,1,3.6-5.85,15.71,15.71,0,0,1,5.49-3.7,17.92,17.92,0,0,1,6.71-1.27,16.71,16.71,0,0,1,7.74,1.74,13.86,13.86,0,0,1,5.2,4.28,8.43,8.43,0,0,1,1.81,4.82,3.12,3.12,0,0,1-.88,2.2,2.78,2.78,0,0,1-2.12,1,2.93,2.93,0,0,1-2.09-.66,9.14,9.14,0,0,1-1.55-2.27,11.1,11.1,0,0,0-3.33-4,8.16,8.16,0,0,0-4.73-1.32,8.55,8.55,0,0,0-7.11,3.4q-2.65,3.39-2.65,9.64a18,18,0,0,0,1.17,7,8.86,8.86,0,0,0,3.32,4.14,9.17,9.17,0,0,0,5,1.36,8.77,8.77,0,0,0,5.28-1.55,9.34,9.34,0,0,0,3.26-4.55,7.66,7.66,0,0,1,1.15-2.31,2.62,2.62,0,0,1,2.2-.89,3.08,3.08,0,0,1,2.22.9,3,3,0,0,1,.93,2.25"/><path class="cls-2" d="M133.27,213.13a20.36,20.36,0,0,1-4.68,2.81,13,13,0,0,1-5.06.94,9.58,9.58,0,0,1-4.51-1,7.42,7.42,0,0,1-3-2.74,7.14,7.14,0,0,1-1-3.76,6.73,6.73,0,0,1,1.74-4.67,8.68,8.68,0,0,1,4.76-2.59l3.15-.65c1.67-.35,3.11-.66,4.3-1s2.5-.63,3.9-1a7,7,0,0,0-1.06-3.87q-.95-1.23-3.9-1.23a8.17,8.17,0,0,0-3.82.7,6.19,6.19,0,0,0-2.2,2.13q-.91,1.41-1.29,1.86a2.07,2.07,0,0,1-1.62.46,2.83,2.83,0,0,1-1.94-.72,2.34,2.34,0,0,1-.82-1.85,5.65,5.65,0,0,1,1.24-3.42,9,9,0,0,1,3.89-2.73,17.35,17.35,0,0,1,6.56-1.07,18.66,18.66,0,0,1,6.91,1,6.43,6.43,0,0,1,3.55,3.29,14.18,14.18,0,0,1,1,5.95c0,1.57,0,2.89,0,4s0,2.31,0,3.64a13.29,13.29,0,0,0,.63,3.92,12.65,12.65,0,0,1,.62,2.62,2.43,2.43,0,0,1-1,1.87,3.23,3.23,0,0,1-2.18.84,3,3,0,0,1-2-1,14.14,14.14,0,0,1-2.12-2.79m-.44-9.65a33.63,33.63,0,0,1-4.26,1.14c-1.87.4-3.16.69-3.87.88a5.18,5.18,0,0,0-2,1.09,2.84,2.84,0,0,0-1,2.29,3.36,3.36,0,0,0,1.15,2.57,4.21,4.21,0,0,0,3,1.06,7.76,7.76,0,0,0,3.65-.86,5.8,5.8,0,0,0,2.46-2.24,10.19,10.19,0,0,0,.9-5Z"/><path class="cls-2" d="M145.25,190.37H146v-4c0-1.08,0-1.92.08-2.53a3.77,3.77,0,0,1,.48-1.57,3,3,0,0,1,1.12-1.12,3.3,3.3,0,0,1,3.93.53,2.78,2.78,0,0,1,.87,1.55,14.34,14.34,0,0,1,.18,2.6v4.54h2.44a3.14,3.14,0,0,1,2.16.67,2.21,2.21,0,0,1,.75,1.72,1.94,1.94,0,0,1-1.06,1.88,6.86,6.86,0,0,1-3,.54h-1.25v12.26a20.49,20.49,0,0,0,.11,2.4,2.5,2.5,0,0,0,.59,1.37,2,2,0,0,0,1.55.52,8.08,8.08,0,0,0,1.58-.21,8.88,8.88,0,0,1,1.57-.2,2,2,0,0,1,1.45.64,2.2,2.2,0,0,1,.65,1.6,2.68,2.68,0,0,1-1.76,2.47,11.88,11.88,0,0,1-5,.85,8.72,8.72,0,0,1-4.74-1,4.85,4.85,0,0,1-2.11-2.9,19.45,19.45,0,0,1-.5-5V195.18h-.88a3.22,3.22,0,0,1-2.2-.68,2.27,2.27,0,0,1-.76-1.74A2.16,2.16,0,0,1,143,191a3.52,3.52,0,0,1,2.3-.67"/><path class="cls-2" d="M196.94,186.07H182.66v9.16H194.6a3.59,3.59,0,0,1,2.47.74,2.55,2.55,0,0,1,.82,2,2.52,2.52,0,0,1-.83,2,3.6,3.6,0,0,1-2.46.73H182.66v11.8a4.74,4.74,0,0,1-1,3.33,3.66,3.66,0,0,1-5.22,0,4.75,4.75,0,0,1-1-3.32V184.93a6,6,0,0,1,.46-2.55,2.92,2.92,0,0,1,1.45-1.45,6.13,6.13,0,0,1,2.53-.45h17.09a3.77,3.77,0,0,1,2.58.77,2.86,2.86,0,0,1,0,4.05,3.72,3.72,0,0,1-2.58.77"/><path class="cls-2" d="M208,186.68a3.51,3.51,0,0,1-2.38-.85,3.32,3.32,0,0,1,0-4.75,3.54,3.54,0,0,1,4.65-.08,2.94,2.94,0,0,1,1,2.41,3.06,3.06,0,0,1-1,2.41,3.37,3.37,0,0,1-2.32.86m3.29,6.89v19.26a4.27,4.27,0,0,1-.95,3,3.15,3.15,0,0,1-2.41,1,3,3,0,0,1-2.38-1,4.48,4.48,0,0,1-.92-3V193.76a4.26,4.26,0,0,1,.92-3,3.06,3.06,0,0,1,2.38-1,3.17,3.17,0,0,1,2.41,1,3.83,3.83,0,0,1,.95,2.78"/><path class="cls-2" d="M224.8,207.27v5.56a4.26,4.26,0,0,1-1,3,3.14,3.14,0,0,1-2.41,1,3.07,3.07,0,0,1-2.37-1,4.36,4.36,0,0,1-.93-3V194.28c0-3,1.08-4.49,3.25-4.49a2.71,2.71,0,0,1,2.39,1,5.84,5.84,0,0,1,.81,3.11,11.66,11.66,0,0,1,2.45-3.11,5.08,5.08,0,0,1,3.36-1,8.53,8.53,0,0,1,4.07,1,3.15,3.15,0,0,1,2,2.79,2.65,2.65,0,0,1-.84,2,2.62,2.62,0,0,1-1.82.8A8.16,8.16,0,0,1,232,196a8.27,8.27,0,0,0-2.48-.45,3.65,3.65,0,0,0-2.39.77,4.93,4.93,0,0,0-1.44,2.28,16,16,0,0,0-.71,3.6c-.13,1.4-.19,3.09-.19,5.1"/><path class="cls-2" d="M260.29,208.17a7.72,7.72,0,0,1-5.31,7.7,17.65,17.65,0,0,1-6.38,1,15.62,15.62,0,0,1-6.15-1.09,9.07,9.07,0,0,1-3.79-2.75,5.56,5.56,0,0,1-1.22-3.31,2.57,2.57,0,0,1,.78-1.88,2.68,2.68,0,0,1,2-.78,2.3,2.3,0,0,1,1.61.51,5.62,5.62,0,0,1,1.08,1.44,7.22,7.22,0,0,0,2.45,2.66,7.35,7.35,0,0,0,3.89.88,5.6,5.6,0,0,0,3.29-.89,2.51,2.51,0,0,0,1.28-2,2.77,2.77,0,0,0-1.33-2.56,16.48,16.48,0,0,0-4.38-1.54,37.07,37.07,0,0,1-5.61-1.79,9.29,9.29,0,0,1-3.45-2.48,5.71,5.71,0,0,1-1.3-3.78,6.67,6.67,0,0,1,1.2-3.79,8.12,8.12,0,0,1,3.53-2.84,13.46,13.46,0,0,1,5.63-1.07,18.44,18.44,0,0,1,4.65.54,11.76,11.76,0,0,1,3.44,1.44,7.1,7.1,0,0,1,2.1,2,3.94,3.94,0,0,1,.72,2.15,2.49,2.49,0,0,1-.77,1.88,3,3,0,0,1-2.18.73,2.68,2.68,0,0,1-1.75-.58,11.65,11.65,0,0,1-1.65-1.76,6,6,0,0,0-1.78-1.56,5.6,5.6,0,0,0-2.78-.59,5.49,5.49,0,0,0-3,.77,2.25,2.25,0,0,0-1.19,1.92,2.07,2.07,0,0,0,.88,1.72,7.11,7.11,0,0,0,2.36,1.11c1,.29,2.36.65,4.11,1.07a22.21,22.21,0,0,1,5.06,1.81,8.41,8.41,0,0,1,3,2.48,5.46,5.46,0,0,1,1,3.26"/><path class="cls-2" d="M266.3,190.37H267v-4c0-1.08,0-1.92.09-2.53a3.62,3.62,0,0,1,.47-1.57,3,3,0,0,1,1.13-1.12,3.19,3.19,0,0,1,1.63-.42,3.28,3.28,0,0,1,2.3,1,2.82,2.82,0,0,1,.86,1.55,13.33,13.33,0,0,1,.19,2.6v4.54h2.44a3.17,3.17,0,0,1,2.16.67,2.2,2.2,0,0,1,.74,1.72,1.92,1.92,0,0,1-1.06,1.88,6.86,6.86,0,0,1-3,.54H273.7v12.26a18.49,18.49,0,0,0,.11,2.4,2.49,2.49,0,0,0,.58,1.37,2,2,0,0,0,1.55.52,8.25,8.25,0,0,0,1.59-.21,8.9,8.9,0,0,1,1.56-.2,2,2,0,0,1,1.46.64,2.19,2.19,0,0,1,.64,1.6,2.67,2.67,0,0,1-1.76,2.47,11.85,11.85,0,0,1-5.05.85,8.76,8.76,0,0,1-4.74-1,4.89,4.89,0,0,1-2.11-2.9,19.92,19.92,0,0,1-.5-5V195.18h-.88a3.17,3.17,0,0,1-2.19-.68,2.24,2.24,0,0,1-.76-1.74A2.15,2.15,0,0,1,264,191a3.53,3.53,0,0,1,2.31-.67"/><path class="cls-2" d="M288.05,216.88a3.79,3.79,0,0,1-2.61-1,3.48,3.48,0,0,1-1.1-2.74,3.54,3.54,0,0,1,1.05-2.56,3.46,3.46,0,0,1,2.59-1.07,3.6,3.6,0,0,1,2.62,1.06,3.44,3.44,0,0,1,1.09,2.57,3.49,3.49,0,0,1-1.09,2.73,3.68,3.68,0,0,1-2.55,1"/></g></svg>