<svg id="圖層_1" data-name="圖層 1" xmlns="http://www.w3.org/2000/svg" viewBox="0 0 102 62"><defs><style>.cls-1{fill:#ffecda;}.cls-2{fill:#d4a5a5;}</style></defs><g id="C"><path class="cls-1" d="M39.75,42.11a5.49,5.49,0,0,1-1.37,1.37,2,2,0,0,1-.4-.65,3.32,3.32,0,0,1-.9.14H15.41a2.85,2.85,0,0,1-3-2.62l2.31-16.53c0-1.2,1.13-7.16,2.52-7.16.63-.15,2.39,1.54,3.46,3.07a4.7,4.7,0,0,0,3.85,1.89h3.4a4.71,4.71,0,0,0,3.86-1.9c1.06-1.52,2.79-3.21,3.46-3.07,1.39,0,2.51,6,2.51,7.16L40,40A3,3,0,0,1,39.75,42.11ZM33.41,27.33a1.13,1.13,0,0,0-1.13,1.12,2.47,2.47,0,0,1-4.94,0,1.12,1.12,0,0,0-2.24,0,2.47,2.47,0,0,1-4.94,0,1.13,1.13,0,0,0-2.25,0,4.78,4.78,0,0,0,4.72,4.72,4.7,4.7,0,0,0,3.59-1.71,4.7,4.7,0,0,0,3.59,1.71,4.78,4.78,0,0,0,4.72-4.72A1.12,1.12,0,0,0,33.41,27.33Z"/><path class="cls-1" d="M24.19,48.23A23.62,23.62,0,1,1,45.13,13.67a2.74,2.74,0,1,1-4.85,2.53A18.14,18.14,0,0,0,7.09,30.6,18.14,18.14,0,0,0,35.24,39a2.74,2.74,0,0,1,3.33,4.35,23.68,23.68,0,0,1-14.38,4.87Z"/><path class="cls-1" d="M13.22,34.34a2.09,2.09,0,0,1-4,.49L7.45,35l1.37,3.75a5.31,5.31,0,0,0,1.51,1.69A11.33,11.33,0,0,0,14.45,42l1.37-8Z"/></g><g id="ater"><path class="cls-1" d="M49.69,40.84a4.53,4.53,0,0,1-3.49-1.43A4.81,4.81,0,0,1,44.93,36,4.5,4.5,0,0,1,47,32q2.12-1.41,6.78-1.92C53.71,28.72,52.91,28,51.4,28a6.57,6.57,0,0,0-2.28.48,2.27,2.27,0,0,1-1.6.22,1.75,1.75,0,0,1-1.21-1,1.64,1.64,0,0,1,.76-2.48A12.74,12.74,0,0,1,52.36,24q6.48,0,6.47,7.32v7.06a1.86,1.86,0,0,1-.64,1.52,2.55,2.55,0,0,1-1.66.51A2.34,2.34,0,0,1,55.16,40a2,2,0,0,1-.77-1.14v-.06h-.12a6.8,6.8,0,0,1-4.58,2M51.4,37a3.33,3.33,0,0,0,2.42-1.27V33.13a8,8,0,0,0-3.23,1,1.74,1.74,0,0,0-.9,1.49Q49.69,37,51.4,37"/><path class="cls-1" d="M68.37,40.84A5.29,5.29,0,0,1,64,39.1a7.05,7.05,0,0,1-1.32-4.59V28.35h-.31a1.67,1.67,0,0,1-1.86-1.92,1.72,1.72,0,0,1,1.74-1.94l.71,0,.31-2.34a2,2,0,0,1,2.25-1.88c1.44,0,2.17.69,2.17,2.08v2.14h1.82a1.72,1.72,0,0,1,2,1.94,1.73,1.73,0,0,1-2,2H67.73v6.1c0,1.65.67,2.48,2,2.48h.06a1.32,1.32,0,0,1,1.15.25,1.72,1.72,0,0,1,.62,1.1c.3,1.31,0,2.09-1,2.34a9.94,9.94,0,0,1-2.2.22"/><path class="cls-1" d="M81.2,40.84a7.89,7.89,0,0,1-5.79-2.22,8.21,8.21,0,0,1-2.34-6.16,8.52,8.52,0,0,1,2.34-6.17A7.07,7.07,0,0,1,80.67,24a6.32,6.32,0,0,1,5.18,2.23,8.49,8.49,0,0,1,1.69,5.51,9,9,0,0,1-.09,1.35.87.87,0,0,1-.38.55,1.19,1.19,0,0,1-.74.24H77.91c.43,2.06,1.77,3.09,4,3.09a5.85,5.85,0,0,0,1.71-.25,2,2,0,0,1,1.45-.15,1.92,1.92,0,0,1,1.09,1,1.48,1.48,0,0,1-.62,2.25,9.77,9.77,0,0,1-4.34,1M77.83,30.66h5.46c0-1.86-.85-2.79-2.54-2.79a2.67,2.67,0,0,0-1.85.67,3.61,3.61,0,0,0-1.07,2.12"/><path class="cls-1" d="M93.25,40.45A2.21,2.21,0,0,1,90.74,38V26.46c0-1.35.71-2,2.11-2a1.92,1.92,0,0,1,2.2,1.85l.11.93h.11a6.68,6.68,0,0,1,2.11-2.39A4.42,4.42,0,0,1,99.83,24H100a1.59,1.59,0,0,1,1.24.9,2.77,2.77,0,0,1,.11,1.69,2.46,2.46,0,0,1-.7,1.38,1.55,1.55,0,0,1-1.38.42h0a3.07,3.07,0,0,0-1.86.65,5.12,5.12,0,0,0-1.61,2.22V38a2.19,2.19,0,0,1-2.47,2.48"/></g><g id="Cat_First" data-name="Cat First"><path class="cls-2" d="M30.85,57.65a2.68,2.68,0,0,1-.24,1,4,4,0,0,1-.74,1.1,3.8,3.8,0,0,1-1.3.87,4.63,4.63,0,0,1-1.85.34,6.52,6.52,0,0,1-1.45-.15,4.1,4.1,0,0,1-1.18-.47,4.29,4.29,0,0,1-1-.84,4.87,4.87,0,0,1-.68-1.07A5.76,5.76,0,0,1,22,57.22a7.2,7.2,0,0,1-.14-1.42,6.23,6.23,0,0,1,.36-2.18,4.49,4.49,0,0,1,1-1.64,4.28,4.28,0,0,1,1.55-1,5,5,0,0,1,1.89-.36,4.7,4.7,0,0,1,2.18.49,3.92,3.92,0,0,1,1.46,1.2,2.38,2.38,0,0,1,.51,1.36.88.88,0,0,1-.25.62.76.76,0,0,1-.59.27.79.79,0,0,1-.59-.19,2.37,2.37,0,0,1-.44-.64A3.13,3.13,0,0,0,28,52.57a2.27,2.27,0,0,0-1.33-.37,2.4,2.4,0,0,0-2,1,4.29,4.29,0,0,0-.75,2.71,5,5,0,0,0,.33,2A2.39,2.39,0,0,0,25.2,59a2.53,2.53,0,0,0,1.41.39,2.48,2.48,0,0,0,1.49-.44A2.64,2.64,0,0,0,29,57.66a2.19,2.19,0,0,1,.32-.65.73.73,0,0,1,.62-.25.88.88,0,0,1,.63.25.87.87,0,0,1,.26.64"/><path class="cls-2" d="M37.3,59.94a6.37,6.37,0,0,1-1.32.8,3.8,3.8,0,0,1-1.43.26,2.66,2.66,0,0,1-1.26-.29,2,2,0,0,1-1.14-1.83,1.87,1.87,0,0,1,.49-1.31A2.41,2.41,0,0,1,34,56.84l.88-.18,1.22-.27,1.09-.29a1.89,1.89,0,0,0-.3-1.09,1.32,1.32,0,0,0-1.09-.35,2.33,2.33,0,0,0-1.08.2,1.69,1.69,0,0,0-.62.6c-.17.27-.29.44-.36.53a.63.63,0,0,1-.46.12.85.85,0,0,1-.55-.2.68.68,0,0,1-.23-.52,1.6,1.6,0,0,1,.35-1,2.54,2.54,0,0,1,1.1-.77,4.94,4.94,0,0,1,1.85-.3,5.11,5.11,0,0,1,1.94.29,1.78,1.78,0,0,1,1,.92A4,4,0,0,1,39,56.25v1.12c0,.31,0,.65,0,1a3.68,3.68,0,0,0,.18,1.11,3.79,3.79,0,0,1,.17.74.69.69,0,0,1-.27.52.91.91,0,0,1-.62.24.84.84,0,0,1-.57-.27,4.48,4.48,0,0,1-.59-.79m-.13-2.71a10.54,10.54,0,0,1-1.2.32l-1.09.24a1.6,1.6,0,0,0-.57.31.79.79,0,0,0-.28.65,1,1,0,0,0,.32.72,1.21,1.21,0,0,0,.85.3,2.26,2.26,0,0,0,1-.24,1.77,1.77,0,0,0,.69-.63,2.9,2.9,0,0,0,.25-1.41Z"/><path class="cls-2" d="M40.67,53.53h.21V52.41c0-.31,0-.54,0-.71a1,1,0,0,1,.14-.45.77.77,0,0,1,.31-.31.9.9,0,0,1,.46-.12.92.92,0,0,1,.65.27.74.74,0,0,1,.24.43,3.65,3.65,0,0,1,0,.74v1.27h.69a.91.91,0,0,1,.61.19.64.64,0,0,1,.21.49.54.54,0,0,1-.3.53,2,2,0,0,1-.86.15h-.35v3.45a5.89,5.89,0,0,0,0,.68.78.78,0,0,0,.17.38.56.56,0,0,0,.44.15,2.15,2.15,0,0,0,.44-.06,2.34,2.34,0,0,1,.44-.06.57.57,0,0,1,.41.18.64.64,0,0,1,.18.45.75.75,0,0,1-.49.7A3.33,3.33,0,0,1,43,61a2.46,2.46,0,0,1-1.34-.3,1.35,1.35,0,0,1-.59-.81,5.34,5.34,0,0,1-.14-1.4v-3.6h-.25A.94.94,0,0,1,40,54.7a.64.64,0,0,1-.21-.49.61.61,0,0,1,.22-.49,1,1,0,0,1,.65-.19"/><path class="cls-2" d="M55.22,52.32h-4V54.9h3.36a1,1,0,0,1,.7.21.74.74,0,0,1,.23.56.72.72,0,0,1-.23.56,1,1,0,0,1-.7.21H51.2v3.32a1.31,1.31,0,0,1-.28.93,1,1,0,0,1-.74.31.93.93,0,0,1-.73-.31,1.35,1.35,0,0,1-.29-.93V52a1.69,1.69,0,0,1,.13-.72.8.8,0,0,1,.41-.4,1.64,1.64,0,0,1,.71-.13h4.81A1,1,0,0,1,56,51a.71.71,0,0,1,.24.56.75.75,0,0,1-.24.58,1.08,1.08,0,0,1-.73.21"/><path class="cls-2" d="M58.34,52.5a1,1,0,0,1-.67-.24.94.94,0,0,1,0-1.34,1,1,0,0,1,.67-.26.94.94,0,0,1,.64.24.82.82,0,0,1,.29.68.87.87,0,0,1-.28.67.91.91,0,0,1-.65.25m.93,1.94v5.42a1.2,1.2,0,0,1-.27.85.91.91,0,0,1-.68.29.83.83,0,0,1-.67-.3,1.22,1.22,0,0,1-.26-.84V54.49a1.22,1.22,0,0,1,.26-.84.85.85,0,0,1,.67-.28.9.9,0,0,1,.68.28,1.1,1.1,0,0,1,.27.79"/><path class="cls-2" d="M63.07,58.29v1.57a1.19,1.19,0,0,1-.27.85.91.91,0,0,1-.68.29.88.88,0,0,1-.67-.29,1.25,1.25,0,0,1-.26-.85V54.63c0-.84.3-1.26.91-1.26a.76.76,0,0,1,.68.3,1.54,1.54,0,0,1,.22.87,3.12,3.12,0,0,1,.7-.87,1.4,1.4,0,0,1,.94-.3,2.38,2.38,0,0,1,1.15.3.87.87,0,0,1,.56.78.75.75,0,0,1-.24.57.73.73,0,0,1-.51.22,2.07,2.07,0,0,1-.5-.13,2.5,2.5,0,0,0-.7-.12,1,1,0,0,0-.67.21,1.42,1.42,0,0,0-.41.64,5.26,5.26,0,0,0-.2,1c0,.39,0,.87,0,1.43"/><path class="cls-2" d="M73.06,58.55a2.26,2.26,0,0,1-.38,1.33,2.34,2.34,0,0,1-1.11.83,5.07,5.07,0,0,1-1.8.29A4.31,4.31,0,0,1,68,60.69,2.58,2.58,0,0,1,67,59.92a1.55,1.55,0,0,1-.34-.93.69.69,0,0,1,.22-.53.72.72,0,0,1,.55-.22.65.65,0,0,1,.46.14,1.81,1.81,0,0,1,.3.41,2.1,2.1,0,0,0,.69.75,2.16,2.16,0,0,0,1.1.24,1.56,1.56,0,0,0,.92-.25.71.71,0,0,0,.36-.57.77.77,0,0,0-.37-.72,4.69,4.69,0,0,0-1.24-.44,10.89,10.89,0,0,1-1.57-.5,2.68,2.68,0,0,1-1-.7,1.6,1.6,0,0,1-.36-1.06,1.84,1.84,0,0,1,.34-1.07,2.23,2.23,0,0,1,1-.8,3.81,3.81,0,0,1,1.58-.3,5.19,5.19,0,0,1,1.31.15,3.22,3.22,0,0,1,1,.41,1.88,1.88,0,0,1,.59.56,1.09,1.09,0,0,1,.21.61.66.66,0,0,1-.22.52.84.84,0,0,1-.61.21.77.77,0,0,1-.5-.16,3.38,3.38,0,0,1-.46-.5,1.74,1.74,0,0,0-.5-.44,1.6,1.6,0,0,0-.79-.16,1.56,1.56,0,0,0-.84.21.64.64,0,0,0-.34.54.61.61,0,0,0,.25.49,2.09,2.09,0,0,0,.67.31l1.15.3a6,6,0,0,1,1.43.51,2.38,2.38,0,0,1,.84.7,1.54,1.54,0,0,1,.28.92"/><path class="cls-2" d="M74.75,53.53H75V52.41c0-.31,0-.54,0-.71a1,1,0,0,1,.14-.45.84.84,0,0,1,.31-.31.9.9,0,0,1,.46-.12.92.92,0,0,1,.65.27.74.74,0,0,1,.24.43,3.53,3.53,0,0,1,.06.74v1.27h.68a.91.91,0,0,1,.61.19.64.64,0,0,1,.21.49.54.54,0,0,1-.3.53,1.93,1.93,0,0,1-.85.15h-.35v3.45a5.89,5.89,0,0,0,0,.68.69.69,0,0,0,.16.38.57.57,0,0,0,.44.15,2.15,2.15,0,0,0,.44-.06,2.34,2.34,0,0,1,.44-.06.55.55,0,0,1,.41.18.61.61,0,0,1,.19.45.76.76,0,0,1-.5.7A3.33,3.33,0,0,1,77,61a2.46,2.46,0,0,1-1.34-.3,1.35,1.35,0,0,1-.59-.81,5.81,5.81,0,0,1-.14-1.4v-3.6h-.25a1,1,0,0,1-.62-.19.64.64,0,0,1-.21-.49.61.61,0,0,1,.22-.49,1,1,0,0,1,.65-.19"/><path class="cls-2" d="M80.88,61a1.05,1.05,0,0,1-.74-.28,1,1,0,0,1-.31-.76,1,1,0,0,1,.3-.73,1,1,0,0,1,.73-.3,1,1,0,0,1,.74.3,1.07,1.07,0,0,1,0,1.49,1,1,0,0,1-.72.28"/></g></svg>