<svg id="圖層_1" data-name="圖層 1" xmlns="http://www.w3.org/2000/svg" viewBox="0 0 91 90"><path d="M81.08,18.86c2.41-.12,4.59-1.23,7.36-1.93a19.64,19.64,0,0,1-5.21,6.16C80.76,24.83,80,27,79.9,30c-.66,24-17.82,44.38-40.9,48.79A50.92,50.92,0,0,1,3.43,73.15a12.2,12.2,0,0,1-1.13-.74c-.07,0-.07-.2-.2-.57,9.05.36,17.33-1.66,25.07-7.51-8.1-1.11-13.48-4.95-16.47-12.58,2.5,0,4.62.31,7-.55C9.41,48.15,4.9,42.49,4.23,33.64c2.41.28,4.32,2.11,6.72,1.18-7.15-8.6-8.27-15-3.8-23.26,2.13,2.2,4,4.46,6.24,6.38A50.67,50.67,0,0,0,41.31,30.1c2.07.25,3,.08,2.73-2.54-.68-7.13,2.24-12.83,8.25-16.61,6.28-3.94,13.2-4.29,19.07.18,4.09,3.12,7.24,1.8,10.92.4,1.14-.43,2.08-1.4,3.74-1.31-.81,3.49-3.29,5.67-5.42,8.07-.34.14-.95,0-.76.64C79.87,19,80.65,18.89,81.08,18.86Z" style="fill:#a6d0e4"/></svg>