<svg id="圖層_1" data-name="圖層 1" xmlns="http://www.w3.org/2000/svg" viewBox="0 0 91 90"><path d="M73.08,45.53c-4,0-7.45-.06-10.94,0-1.41,0-1.82-.41-1.77-1.79.1-2.53.07-5.07,0-7.61,0-2.25,1-3.35,3.23-3.32.21,0,.43,0,.64,0,6.3-.17,6.3-.17,6.3-6.71,0-6,0-6-6.08-6a30.63,30.63,0,0,0-7.58.47A15.19,15.19,0,0,0,45.26,34.05c-.07.74-.08,1.48-.09,2.22,0,2.95,1,6.67-.42,8.64s-5.3.52-8.11.57c-1.52,0-1.68.68-1.66,1.91.07,3,.09,5.93,0,8.88,0,1.46.3,2.23,1.9,2a4.3,4.3,0,0,1,1,0c2.39.18,5.55-1,6.94.54,1.17,1.32.39,4.41.4,6.72,0,6.14-.06,12.27,0,18.4,0,1.73-.35,2.34-2.22,2.32-9.3-.1-18.61,0-27.92-.07-6.26,0-10.5-4.33-10.51-10.64q-.08-30,0-60c0-6.29,4.27-10.59,10.54-10.61q30.15-.07,60.29,0A10,10,0,0,1,85.77,15.36q.09,30.15,0,60.29c0,6.14-4.25,10.37-10.33,10.49-4.34.09-8.68-.06-13,.07-1.74.05-2.08-.56-2.06-2.15.07-7.93.09-15.87,0-23.8,0-1.73.56-2.34,2.14-2,4.46.92,6.72-1,7.7-5.34C70.76,50.48,72,48.22,73.08,45.53Z" style="fill:#a6d0e4"/></svg>