<svg id="圖層_1" data-name="圖層 1" xmlns="http://www.w3.org/2000/svg" viewBox="0 0 91 90"><path d="M89.79,45c0,6,.31,12-.06,17.91-.91,14.3-10.75,24.92-25,26a250.64,250.64,0,0,1-37.87,0C12.94,87.92,3,77.93,1.91,64a253.16,253.16,0,0,1,0-37.86C3,12.26,13,2.32,26.92,1.3a258.31,258.31,0,0,1,37.53,0c14.9,1.09,25,12.55,25.39,27.52.13,5.39,0,10.79,0,16.19Zm-8.2.24c0-5.28,0-10.56,0-15.84-.14-11.77-8.21-20-19.89-20.1q-16-.17-32,0C18.14,9.44,10,17.63,9.9,29.18q-.17,16,0,32C10,72.72,18.23,80.84,29.77,81q16,.17,32,0c11.51-.14,19.58-8.32,19.76-19.87C81.65,55.81,81.59,50.52,81.59,45.24Z" style="fill:#a6d0e4"/><path d="M67.78,45a22.05,22.05,0,1,1-22-21.89A22.23,22.23,0,0,1,67.78,45ZM59.5,45A13.77,13.77,0,1,0,45.83,58.9,13.88,13.88,0,0,0,59.5,45Z" style="fill:#a6d0e4"/><path d="M69.56,24.36a2.91,2.91,0,0,1-3-2.71,2.72,2.72,0,0,1,2.89-3.1,2.67,2.67,0,0,1,2.85,2.8C72.35,23,71.27,24,69.56,24.36Z" style="fill:#a6d0e4"/></svg>